<svg width="48" height="48" viewBox="0 0 24 24" fill="none" xmlns="http://www.w3.org/2000/svg">
<path d="M12 12L19 5L22 8M17 19L12 14L5 7" stroke="#333333" stroke-width="2" stroke-linecap="round" stroke-linejoin="round"/>
<path d="M10 20L4 14L7 11M13 5L18 10L21 7" stroke="#333333" stroke-width="2" stroke-linecap="round" stroke-linejoin="round"/>
<path d="M10 20L4 14L7 11M13 5L18 10L21 7" stroke="#333333" stroke-width="2" stroke-linecap="round" stroke-linejoin="round"/>
<path d="M17 19L12 14L5 7M12 12L19 5L22 8M13 5L18 10L21 7M10 20L4 14L7 11" stroke="#333333" stroke-width="2" stroke-linecap="round" stroke-linejoin="round"/>
<line x1="6" y1="6" x2="18" y2="18" stroke="#FF0000" stroke-width="3" stroke-linecap="round"/>
<line x1="18" y1="6" x2="6" y2="18" stroke="#FF0000" stroke-width="3" stroke-linecap="round"/>
</svg>
